Coordinates
version=1
nRows=12
nColumns=19
inDegrees=yes

Units are S.I. units (second, meters, Newtons, ...)
If the header above contains a line with 'inDegrees', this indicates whether rotational values are in degrees (yes) or radians (no).

endheader
time	pelvis_to_ground_rx	pelvis_to_ground_ry	pelvis_to_ground_rz	pelvis_to_ground_tx	pelvis_to_ground_ty	pelvis_to_ground_tz	left_hip_abduction	left_hip_rotation	left_hip_flexion	left_knee_flexion	left_ankle_flexion	left_subtalar_angle	right_hip_abduction	right_hip_rotation	right_hip_flexion	right_knee_flexion	right_ankle_flexion	right_subtalar_angle
      1.02000000	     82.91358976	      5.25851065	     -5.84837650	     -0.99290099	     -0.72386240	      0.72781369	     -1.65273073	     12.63919831	     29.75540379	    -79.89222389	     -2.24952529	     -9.88225376	     11.33996964	      4.24050689	     12.44744377	    -10.10025631	      0.07467708	     -3.67350936
      1.03000000	     83.10275894	      4.62036370	     -5.96300671	     -0.98279038	     -0.72445928	      0.72929941	     -2.75946748	     12.99460850	     31.75614326	    -79.93188580	     -1.47718178	    -10.62676826	     11.16101499	      4.93245064	     11.34947165	     -9.53227522	      0.05262101	     -3.40670745
      1.04000000	     83.31284307	      3.97557983	     -6.03259620	     -0.97276984	     -0.72494349	      0.73058045	     -3.84802192	     13.26571549	     33.67176528	    -79.65138574	     -1.00818275	    -11.08494920	     10.94296260	      5.77817304	     10.29806274	     -9.15192272	      0.06456705	     -3.23986253
      1.05000000	     83.58222863	      3.33801266	     -6.03586638	     -0.96282767	     -0.72525911	      0.73160588	     -4.93780070	     13.39119275	     35.44301728	    -79.04612663	     -0.04859206	    -12.17564377	     10.67834057	      6.45527024	      9.34903250	     -9.08339921	      0.10301214	     -3.11765139
      1.06000000	     83.82187082	      2.70889969	     -6.04402654	     -0.95295811	     -0.72548978	      0.73241594	     -5.93288789	     13.43551201	     37.17153055	    -78.15180688	      0.28384759	    -12.58173660	     10.43570799	      7.27267270	      8.46081204	     -9.11980015	      0.15815817	     -3.01956063
      1.07000000	     84.06675584	      2.12642429	     -6.00151791	     -0.94313931	     -0.72559924	      0.73295484	     -6.83093277	     13.29350643	     38.75156388	    -76.96404213	      1.01236499	    -13.60805849	     10.21122143	      7.85822175	      7.63984826	     -9.35294563	      0.34107946	     -2.98311551
      1.08000000	     84.24162351	      1.49982133	     -5.95099280	     -0.93337513	     -0.72562414	      0.73321419	     -7.57604504	     13.20911408	     40.27752032	    -75.53001689	      1.22688168	    -13.94161306	     10.06031259	      8.48507289	      6.87028049	     -9.69584197	      0.44014862	     -2.91766497
      1.09000000	     84.38971936	      0.91625954	     -5.89864162	     -0.92362185	     -0.72557148	      0.73321678	     -8.18051194	     12.98801609	     41.69127371	    -73.82374979	      1.51466511	    -14.31203639	      9.95013940	      8.94857992	      6.15264128	    -10.11993717	      0.60672507	     -2.87948658
      1.10000000	     84.48871086	      0.35527345	     -5.83633139	     -0.91385634	     -0.72545929	      0.73296395	     -8.61156325	     12.69047962	     42.97634011	    -71.85678890	      1.77591108	    -14.64539052	      9.89925799	      9.29655360	      5.44640991	    -10.57228395	      0.84096076	     -2.84367273
      1.11000000	     84.53441323	     -0.17662934	     -5.75550419	     -0.90404220	     -0.72531449	      0.73245374	     -8.85615647	     12.33342031	     44.10690357	    -69.63856416	      1.94660785	    -14.86851030	      9.91389811	      9.53189492	      4.72742033	    -11.03495314	      1.14051855	     -2.79283791
      1.12000000	     84.52993163	     -0.67680276	     -5.55521066	     -0.89412123	     -0.72515190	      0.73166182	     -8.88847822	     11.93154148	     44.94917173	    -67.18686002	      1.98489877	    -14.86023602	     10.00495630	      9.60201329	      3.89056480	    -11.52162338	      1.22713103	     -2.77929045
      1.13000000	     84.48208453	     -1.22426311	     -5.61591922	     -0.88410450	     -0.72493003	      0.73072271	     -8.81322478	     11.52172433	     45.89174572	    -64.48221729	      1.96259762	    -14.74619570	     10.09210536	      9.94763220	      3.27268566	    -11.95645423	      1.70117845	     -2.73016047
